<svg xmlns="http://www.w3.org/2000/svg" xmlns:xlink="http://www.w3.org/1999/xlink" viewBox="0 0 1080 490"><defs><path id="b" d="M0 0h1080v489H0z"/><filter id="a" width="200%" height="200%" x="-50%" y="-50%" filterUnits="objectBoundingBox"><feOffset dy="1" in="SourceAlpha" result="shadowOffsetOuter1"/><feColorMatrix in="shadowOffsetOuter1" values="0 0 0 0 0.933333333 0 0 0 0 0.933333333 0 0 0 0 0.933333333 0 0 0 1 0"/></filter></defs><g fill="none" fill-rule="evenodd"><g><use fill="#000" filter="url(#a)" xlink:href="#b"/><use fill="#FFF" xlink:href="#b"/></g><g fill="#F6F6F6"><g transform="translate(76 36)"><path d="M9 139h100v34H9z"/><ellipse cx="59" cy="59" rx="59" ry="59"/></g><g transform="translate(346 36)"><path d="M9 139h100v34H9z"/><ellipse cx="59" cy="59" rx="59" ry="59"/></g><g transform="translate(616 36)"><path d="M9 139h100v34H9z"/><ellipse cx="59" cy="59" rx="59" ry="59"/></g><g transform="translate(886 36)"><path d="M9 139h100v34H9z"/><ellipse cx="59" cy="59" rx="59" ry="59"/></g></g><g fill="#F6F6F6"><g transform="translate(76 252)"><path d="M9 139h100v34H9z"/><ellipse cx="59" cy="59" rx="59" ry="59"/></g><g transform="translate(346 252)"><path d="M9 139h100v34H9z"/><ellipse cx="59" cy="59" rx="59" ry="59"/></g><g transform="translate(616 252)"><path d="M9 139h100v34H9z"/><ellipse cx="59" cy="59" rx="59" ry="59"/></g><g transform="translate(886 252)"><path d="M9 139h100v34H9z"/><ellipse cx="59" cy="59" rx="59" ry="59"/></g></g></g></svg>